<svg width="24" height="24" viewBox="0 0 24 24" fill="none" xmlns="http://www.w3.org/2000/svg">
<path opacity="0.4" d="M6.00006 9V15C6.00006 17 7.00006 18 9.00006 18H15.0001C17.0001 18 18.0001 17 18.0001 15V12C18.0001 11.45 17.5501 11 17.0001 11C16.4501 11 16.0001 10.55 16.0001 10V9C16.0001 7 15.0001 6 13.0001 6H9.00006C7.00006 6 6.00006 7 6.00006 9Z" stroke="#B81E94" stroke-width="1.5" stroke-miterlimit="10"/>
<path opacity="0.4" d="M10.0001 10H12.0001" stroke="#B81E94" stroke-width="1.5" stroke-miterlimit="10" stroke-linecap="round" stroke-linejoin="round"/>
<path opacity="0.4" d="M10.0001 14H14.0001" stroke="#B81E94" stroke-width="1.5" stroke-miterlimit="10" stroke-linecap="round" stroke-linejoin="round"/>
<path d="M15.0001 22H9.00006C4.00006 22 2.00006 20 2.00006 15V9C2.00006 4 4.00006 2 9.00006 2H15.0001C20.0001 2 22.0001 4 22.0001 9V15C22.0001 20 20.0001 22 15.0001 22Z" stroke="#B81E94" stroke-width="1.5" stroke-linecap="round" stroke-linejoin="round"/>
</svg>
