<svg width="20" height="20" viewBox="0 0 20 20" fill="none" xmlns="http://www.w3.org/2000/svg">
<path d="M17.4999 10.3531V9.1664C17.4999 7.17728 16.7097 5.26963 15.3032 3.8631C13.8967 2.45658 11.989 1.6664 9.99992 1.6664C8.0108 1.6664 6.10315 2.45658 4.69662 3.8631C3.2901 5.26963 2.49992 7.17728 2.49992 9.1664V10.3531C1.62589 10.7379 0.91059 11.4114 0.473775 12.2606C0.0369588 13.1099 -0.0948593 14.0834 0.100388 15.0183C0.295635 15.9531 0.806096 16.7925 1.54631 17.3959C2.28653 17.9994 3.21158 18.3302 4.16659 18.3331C4.60862 18.3331 5.03254 18.1575 5.3451 17.8449C5.65766 17.5324 5.83326 17.1084 5.83326 16.6664V11.6664C5.83326 11.2244 5.65766 10.8005 5.3451 10.4879C5.03254 10.1753 4.60862 9.99974 4.16659 9.99974V9.1664C4.16659 7.61931 4.78117 6.13558 5.87513 5.04161C6.9691 3.94765 8.45283 3.33307 9.99992 3.33307C11.547 3.33307 13.0308 3.94765 14.1247 5.04161C15.2187 6.13558 15.8333 7.61931 15.8333 9.1664V9.99974C15.3912 9.99974 14.9673 10.1753 14.6547 10.4879C14.3422 10.8005 14.1666 11.2244 14.1666 11.6664V16.6664H11.6666C11.4456 16.6664 11.2336 16.7542 11.0773 16.9105C10.9211 17.0668 10.8333 17.2787 10.8333 17.4997C10.8333 17.7208 10.9211 17.9327 11.0773 18.089C11.2336 18.2453 11.4456 18.3331 11.6666 18.3331H15.8333C16.7883 18.3302 17.7133 17.9994 18.4535 17.3959C19.1938 16.7925 19.7042 15.9531 19.8995 15.0183C20.0947 14.0834 19.9629 13.1099 19.5261 12.2606C19.0893 11.4114 18.374 10.7379 17.4999 10.3531V10.3531ZM4.16659 16.6664C3.50355 16.6664 2.86766 16.403 2.39882 15.9342C1.92998 15.4653 1.66659 14.8294 1.66659 14.1664C1.66659 13.5034 1.92998 12.8675 2.39882 12.3986C2.86766 11.9298 3.50355 11.6664 4.16659 11.6664V16.6664ZM15.8333 16.6664V11.6664C16.4963 11.6664 17.1322 11.9298 17.601 12.3986C18.0699 12.8675 18.3333 13.5034 18.3333 14.1664C18.3333 14.8294 18.0699 15.4653 17.601 15.9342C17.1322 16.403 16.4963 16.6664 15.8333 16.6664Z" fill="#B81E94"/>
</svg>
